<svg xmlns="http://www.w3.org/2000/svg" width="920" height="400" viewBox="0 0 920 400">
<rect width="100%" height="100%" fill="white"/>
<text x="55" y="30" font-family="sans-serif" font-size="18">DMO future gilt redemptions, 21 September 2026 (£m)</text>
<line x1="55" y1="330" x2="895" y2="330" stroke="#333"/>
<rect x="60.0" y="99.8" width="15.4" height="230.2" fill="#165d85"/>
<rect x="60.0" y="76.5" width="15.4" height="23.3" fill="#eb9c35"/>
<text x="60.0" y="347" font-family="sans-serif" font-size="10" transform="rotate(45 60.0 347)">2027-2028</text>
<rect x="77.4" y="151.8" width="15.4" height="178.2" fill="#165d85"/>
<rect x="77.4" y="98.6" width="15.4" height="53.2" fill="#eb9c35"/>
<rect x="94.9" y="75.0" width="15.4" height="255.0" fill="#165d85"/>
<rect x="94.9" y="75.0" width="15.4" height="0.0" fill="#eb9c35"/>
<rect x="112.3" y="151.1" width="15.4" height="178.9" fill="#165d85"/>
<rect x="112.3" y="142.9" width="15.4" height="8.3" fill="#eb9c35"/>
<rect x="129.8" y="145.0" width="15.4" height="185.0" fill="#165d85"/>
<rect x="129.8" y="114.1" width="15.4" height="30.9" fill="#eb9c35"/>
<rect x="147.2" y="178.0" width="15.4" height="152.0" fill="#165d85"/>
<rect x="147.2" y="154.6" width="15.4" height="23.5" fill="#eb9c35"/>
<text x="147.2" y="347" font-family="sans-serif" font-size="10" transform="rotate(45 147.2 347)">2032-2033</text>
<rect x="164.7" y="222.0" width="15.4" height="108.0" fill="#165d85"/>
<rect x="164.7" y="170.4" width="15.4" height="51.6" fill="#eb9c35"/>
<rect x="182.1" y="158.7" width="15.4" height="171.3" fill="#165d85"/>
<rect x="182.1" y="145.2" width="15.4" height="13.5" fill="#eb9c35"/>
<rect x="199.6" y="179.0" width="15.4" height="151.0" fill="#165d85"/>
<rect x="199.6" y="146.4" width="15.4" height="32.6" fill="#eb9c35"/>
<rect x="217.0" y="259.8" width="15.4" height="70.2" fill="#165d85"/>
<rect x="217.0" y="237.3" width="15.4" height="22.6" fill="#eb9c35"/>
<rect x="234.5" y="234.0" width="15.4" height="96.0" fill="#165d85"/>
<rect x="234.5" y="212.9" width="15.4" height="21.1" fill="#eb9c35"/>
<text x="234.5" y="347" font-family="sans-serif" font-size="10" transform="rotate(45 234.5 347)">2037-2038</text>
<rect x="251.9" y="262.3" width="15.4" height="67.7" fill="#165d85"/>
<rect x="251.9" y="213.7" width="15.4" height="48.6" fill="#eb9c35"/>
<rect x="269.4" y="243.3" width="15.4" height="86.7" fill="#165d85"/>
<rect x="269.4" y="220.3" width="15.4" height="23.0" fill="#eb9c35"/>
<rect x="286.8" y="252.9" width="15.4" height="77.1" fill="#165d85"/>
<rect x="286.8" y="252.9" width="15.4" height="0.0" fill="#eb9c35"/>
<rect x="304.3" y="280.2" width="15.4" height="49.8" fill="#165d85"/>
<rect x="304.3" y="260.6" width="15.4" height="19.6" fill="#eb9c35"/>
<rect x="321.7" y="297.5" width="15.4" height="32.5" fill="#165d85"/>
<rect x="321.7" y="277.0" width="15.4" height="20.5" fill="#eb9c35"/>
<text x="321.7" y="347" font-family="sans-serif" font-size="10" transform="rotate(45 321.7 347)">2042-2043</text>
<rect x="339.1" y="236.3" width="15.4" height="93.7" fill="#165d85"/>
<rect x="339.1" y="211.6" width="15.4" height="24.6" fill="#eb9c35"/>
<rect x="356.6" y="288.1" width="15.4" height="41.9" fill="#165d85"/>
<rect x="356.6" y="265.2" width="15.4" height="22.9" fill="#eb9c35"/>
<rect x="374.0" y="295.9" width="15.4" height="34.1" fill="#165d85"/>
<rect x="374.0" y="274.9" width="15.4" height="20.9" fill="#eb9c35"/>
<rect x="391.5" y="300.3" width="15.4" height="29.7" fill="#165d85"/>
<rect x="391.5" y="300.3" width="15.4" height="0.0" fill="#eb9c35"/>
<rect x="408.9" y="292.9" width="15.4" height="37.1" fill="#165d85"/>
<rect x="408.9" y="273.7" width="15.4" height="19.2" fill="#eb9c35"/>
<text x="408.9" y="347" font-family="sans-serif" font-size="10" transform="rotate(45 408.9 347)">2047-2048</text>
<rect x="426.4" y="285.8" width="15.4" height="44.2" fill="#165d85"/>
<rect x="426.4" y="267.2" width="15.4" height="18.5" fill="#eb9c35"/>
<rect x="443.8" y="302.9" width="15.4" height="27.1" fill="#165d85"/>
<rect x="443.8" y="270.3" width="15.4" height="32.6" fill="#eb9c35"/>
<rect x="461.3" y="282.9" width="15.4" height="47.1" fill="#165d85"/>
<rect x="461.3" y="263.6" width="15.4" height="19.3" fill="#eb9c35"/>
<rect x="478.7" y="287.0" width="15.4" height="43.0" fill="#165d85"/>
<rect x="478.7" y="266.7" width="15.4" height="20.2" fill="#eb9c35"/>
<rect x="496.2" y="294.6" width="15.4" height="35.4" fill="#165d85"/>
<rect x="496.2" y="294.6" width="15.4" height="0.0" fill="#eb9c35"/>
<text x="496.2" y="347" font-family="sans-serif" font-size="10" transform="rotate(45 496.2 347)">2052-2053</text>
<rect x="513.6" y="242.2" width="15.4" height="87.8" fill="#165d85"/>
<rect x="513.6" y="242.2" width="15.4" height="0.0" fill="#eb9c35"/>
<rect x="531.1" y="245.3" width="15.4" height="84.7" fill="#165d85"/>
<rect x="531.1" y="221.8" width="15.4" height="23.6" fill="#eb9c35"/>
<rect x="548.5" y="283.0" width="15.4" height="47.0" fill="#165d85"/>
<rect x="548.5" y="266.3" width="15.4" height="16.7" fill="#eb9c35"/>
<rect x="566.0" y="330.0" width="15.4" height="0.0" fill="#165d85"/>
<rect x="566.0" y="318.6" width="15.4" height="11.4" fill="#eb9c35"/>
<rect x="583.4" y="285.3" width="15.4" height="44.7" fill="#165d85"/>
<rect x="583.4" y="268.4" width="15.4" height="16.9" fill="#eb9c35"/>
<text x="583.4" y="347" font-family="sans-serif" font-size="10" transform="rotate(45 583.4 347)">2057-2058</text>
<rect x="600.9" y="330.0" width="15.4" height="0.0" fill="#165d85"/>
<rect x="600.9" y="330.0" width="15.4" height="0.0" fill="#eb9c35"/>
<rect x="618.3" y="295.5" width="15.4" height="34.5" fill="#165d85"/>
<rect x="618.3" y="295.5" width="15.4" height="0.0" fill="#eb9c35"/>
<rect x="635.7" y="330.0" width="15.4" height="0.0" fill="#165d85"/>
<rect x="635.7" y="330.0" width="15.4" height="0.0" fill="#eb9c35"/>
<rect x="653.2" y="291.6" width="15.4" height="38.4" fill="#165d85"/>
<rect x="653.2" y="272.2" width="15.4" height="19.4" fill="#eb9c35"/>
<rect x="670.6" y="330.0" width="15.4" height="0.0" fill="#165d85"/>
<rect x="670.6" y="330.0" width="15.4" height="0.0" fill="#eb9c35"/>
<text x="670.6" y="347" font-family="sans-serif" font-size="10" transform="rotate(45 670.6 347)">2062-2063</text>
<rect x="688.1" y="301.3" width="15.4" height="28.7" fill="#165d85"/>
<rect x="688.1" y="301.3" width="15.4" height="0.0" fill="#eb9c35"/>
<rect x="705.5" y="330.0" width="15.4" height="0.0" fill="#165d85"/>
<rect x="705.5" y="330.0" width="15.4" height="0.0" fill="#eb9c35"/>
<rect x="723.0" y="300.5" width="15.4" height="29.5" fill="#165d85"/>
<rect x="723.0" y="287.7" width="15.4" height="12.8" fill="#eb9c35"/>
<rect x="740.4" y="330.0" width="15.4" height="0.0" fill="#165d85"/>
<rect x="740.4" y="330.0" width="15.4" height="0.0" fill="#eb9c35"/>
<rect x="757.9" y="330.0" width="15.4" height="0.0" fill="#165d85"/>
<rect x="757.9" y="310.4" width="15.4" height="19.6" fill="#eb9c35"/>
<text x="757.9" y="347" font-family="sans-serif" font-size="10" transform="rotate(45 757.9 347)">2067-2068</text>
<rect x="775.3" y="300.6" width="15.4" height="29.4" fill="#165d85"/>
<rect x="775.3" y="300.6" width="15.4" height="0.0" fill="#eb9c35"/>
<rect x="792.8" y="330.0" width="15.4" height="0.0" fill="#165d85"/>
<rect x="792.8" y="330.0" width="15.4" height="0.0" fill="#eb9c35"/>
<rect x="810.2" y="330.0" width="15.4" height="0.0" fill="#165d85"/>
<rect x="810.2" y="330.0" width="15.4" height="0.0" fill="#eb9c35"/>
<rect x="827.7" y="294.7" width="15.4" height="35.3" fill="#165d85"/>
<rect x="827.7" y="294.7" width="15.4" height="0.0" fill="#eb9c35"/>
<rect x="845.1" y="330.0" width="15.4" height="0.0" fill="#165d85"/>
<rect x="845.1" y="321.0" width="15.4" height="9.0" fill="#eb9c35"/>
<text x="845.1" y="347" font-family="sans-serif" font-size="10" transform="rotate(45 845.1 347)">2072-2073</text>
<rect x="862.6" y="313.9" width="15.4" height="16.1" fill="#165d85"/>
<rect x="862.6" y="313.9" width="15.4" height="0.0" fill="#eb9c35"/>
<rect x="55" y="365" width="12" height="12" fill="#165d85"/><text x="73" y="376" font-family="sans-serif" font-size="12">Conventional</text>
<rect x="180" y="365" width="12" height="12" fill="#eb9c35"/><text x="198" y="376" font-family="sans-serif" font-size="12">Index-linked</text>
</svg>
